<?xml version="1.0" encoding="UTF-8" standalone="no"?>
<!DOCTYPE svg PUBLIC "-//W3C//DTD SVG 1.1//EN" "http://www.w3.org/Graphics/SVG/1.1/DTD/svg11.dtd">
<!-- Created with Vectornator (http://vectornator.io/) -->
<svg height="100%" stroke-miterlimit="10" style="fill-rule:nonzero;clip-rule:evenodd;stroke-linecap:round;stroke-linejoin:round;" version="1.1" viewBox="0 0 142 142" width="100%" xml:space="preserve" xmlns="http://www.w3.org/2000/svg" xmlns:vectornator="http://vectornator.io" xmlns:xlink="http://www.w3.org/1999/xlink">
<defs/>
<g id="g816" vectornator:layerName="g816">
<path d="M142 70.9993C142 78.7441 137.423 85.6441 135.238 92.6241C132.97 99.8663 132.68 108.22 128.448 114.249C124.172 120.338 116.567 123.185 110.691 127.616C104.874 132.003 99.9342 138.645 92.948 140.997C86.2052 143.266 78.4713 140.976 71.0001 140.976C63.5289 140.976 55.7951 143.266 49.0542 140.997C42.0661 138.645 37.1259 132.003 31.3085 127.616C25.4333 123.185 17.8287 120.338 13.5531 114.249C9.32011 108.222 9.0303 99.8684 6.7621 92.6241C4.57311 85.636 6.94e-07 78.7361 6.94e-07 70.9993C6.94e-07 63.2624 4.57698 56.3545 6.7621 49.3745C9.0303 42.1322 9.32011 33.7786 13.5531 27.7497C17.8287 21.6627 25.4333 18.8135 31.3085 14.3845C37.1259 9.9974 42.0661 3.35379 49.0542 1.0031C55.7951-1.2655 63.5289 1.02312 71.0001 1.02312C78.4713 1.02312 86.2052-1.2655 92.9461 1.0031C99.9342 3.35379 104.874 9.9974 110.691 14.3845C116.567 18.8135 124.172 21.6627 128.448 27.7497C132.68 33.7786 132.97 42.1322 135.238 49.3745C137.423 56.3545 142 63.2563 142 70.9993Z" fill="#326ce5" fill-rule="nonzero" opacity="1" stroke="none"/>
<path d="M13.6169 62.8136C21.8145 62.8136 21.8145 66.8183 30.0102 66.8183C38.2058 66.8183 38.2078 62.8136 46.4053 62.8136C54.6029 62.8136 54.601 66.8183 62.7986 66.8183C70.9962 66.8183 70.9943 62.8136 79.1919 62.8136C87.3895 62.8136 87.3894 66.8183 95.5851 66.8183C103.781 66.8183 103.783 62.8136 111.98 62.8136C120.178 62.8136 120.178 66.8183 128.375 66.8183" fill="none" opacity="1" stroke="#ffffff" stroke-linecap="butt" stroke-linejoin="miter" stroke-width="1.02007"/>
<path d="M13.6169 70.8229C21.8145 70.8229 21.8145 74.8275 30.0102 74.8275C38.2058 74.8275 38.2078 70.8229 46.4053 70.8229C54.6029 70.8229 54.601 74.8275 62.7986 74.8275C70.9962 74.8275 70.9943 70.8229 79.1919 70.8229C87.3895 70.8229 87.3894 74.8275 95.5851 74.8275C103.781 74.8275 103.783 70.8229 111.98 70.8229C120.178 70.8229 120.178 74.8275 128.375 74.8275" fill="none" opacity="1" stroke="#ffffff" stroke-linecap="butt" stroke-linejoin="miter" stroke-width="1.02007"/>
<path d="M13.6169 80.4338C21.8145 80.4338 21.8145 84.4384 30.0102 84.4384C38.2058 84.4384 38.2078 80.4338 46.4053 80.4338C54.6029 80.4338 54.601 84.4384 62.7986 84.4384C70.9962 84.4384 70.9943 80.4338 79.1919 80.4338C87.3895 80.4338 87.3894 84.4384 95.5851 84.4384C103.781 84.4384 103.783 80.4338 111.98 80.4338C120.178 80.4338 120.178 84.4384 128.375 84.4384" fill="none" opacity="1" stroke="#ffffff" stroke-linecap="butt" stroke-linejoin="miter" stroke-width="1.02007"/>
<path d="M70.9963 8.49548C37.6881 8.49548 10.686 36.4795 10.686 70.9991C10.686 105.518 37.6881 133.503 70.9963 133.503C104.305 133.503 131.307 105.527 131.307 70.9991C131.307 36.4716 104.305 8.49548 70.9963 8.49548ZM70.9809 128.064C40.5629 128.064 15.9392 102.533 15.9334 71.009C15.9334 39.4509 40.6209 13.8837 71.06 13.9437C101.499 14.0038 126.087 39.5331 126.06 71.0531C126.032 102.573 101.399 128.075 70.9809 128.064Z" fill="#ffffff" fill-rule="nonzero" opacity="1" stroke="none"/>
<path d="M43.175 99.3195C42.9818 98.6288 42.0641 97.9419 41.3512 98.0341C40.3389 98.1682 39.3303 98.3424 38.1131 98.5306C38.5613 97.2992 38.94 96.248 39.3264 95.1968C39.6606 94.2837 38.94 93.8412 38.488 93.3526C38.0358 92.8641 37.6823 93.4808 37.375 93.7331C35.7386 95.0766 34.1525 96.4863 32.5006 97.8078C31.7162 98.4345 32.3074 98.799 32.6243 99.2495C32.941 99.6999 33.2637 100.207 33.911 99.6159C34.6567 98.9371 35.445 98.3064 36.2294 97.6476C36.2584 97.7237 36.2854 97.7598 36.2777 97.7838C36.1231 98.2484 35.9551 98.7088 35.8043 99.1754C35.4894 100.16 36.098 100.879 37.0969 100.717C37.5122 100.649 37.9354 100.517 38.4299 100.737C37.6263 101.42 36.9288 102.061 36.183 102.631C35.5705 103.1 35.8643 103.482 36.2332 103.833C36.6023 104.183 36.7568 105.096 37.547 104.433C39.3232 102.949 41.0935 101.46 42.8581 99.9663C43.0398 99.8121 43.2735 99.668 43.175 99.3195Z" fill="#ffffff" fill-rule="nonzero" opacity="1" stroke="none"/>
<path d="M75.4689 31.9644C76.7324 32.5049 77.2329 32.2567 77.4936 30.9032C77.5516 30.6088 77.6038 30.3165 77.6733 30.0261C77.7294 29.7899 77.6733 29.3914 78.023 29.4414C78.3728 29.4916 78.821 29.4175 78.9485 29.958C79.076 30.4987 79.2345 30.9773 79.3774 31.4858C79.7792 32.8874 80.0555 33.1057 81.4331 33.1798C81.9509 33.2078 82.0668 33.0256 81.9296 32.5471C81.7133 31.7841 81.5258 31.0113 81.2959 30.2524C81.1897 29.906 81.1027 29.7018 81.5606 29.5035C82.6773 29.015 82.9787 27.9658 83.0579 26.8865C83.0579 25.5531 82.2851 24.5779 80.8399 24.1774C79.6653 23.853 78.4597 23.6508 77.2696 23.3765C76.8251 23.2764 76.603 23.4627 76.5199 23.9032C76.0639 26.3059 75.6003 28.7247 75.1501 31.1394C75.0902 31.4657 75.0458 31.7841 75.4689 31.9644ZM78.8577 25.7573C79.8333 25.6552 80.7743 26.2398 80.7646 26.8385C80.755 27.4372 80.4169 27.7275 79.7619 27.7456C79.358 27.3932 78.4211 27.9658 78.2839 27.0707C78.2259 26.6923 78.0907 25.8474 78.8577 25.7653L78.8577 25.7573Z" fill="#ffffff" fill-rule="nonzero" opacity="1" stroke="none"/>
<path d="M62.7465 110.296C62.1978 110.109 61.6376 109.876 61.4443 110.82C61.2337 111.86 60.913 112.873 60.5807 114.124C60.0726 112.558 59.6012 111.218 59.209 109.852C58.952 108.958 58.214 108.967 57.5919 108.851C56.906 108.734 57.0296 109.451 56.9215 109.852C56.3418 111.926 55.8434 114.029 55.2213 116.091C54.9159 117.108 55.6405 117.015 56.1235 117.19C56.6375 117.372 57.1803 117.59 57.3755 116.709C57.6092 115.654 57.9203 114.617 58.2352 113.437C58.3647 113.746 58.4536 113.922 58.5134 114.107C58.8998 115.307 59.3037 116.496 59.6726 117.698C59.9374 118.588 60.7102 118.534 61.3265 118.622C61.9428 118.71 61.8153 118.021 61.9176 117.659C62.4973 115.58 62.9861 113.476 63.6179 111.417C63.9057 110.421 63.2392 110.464 62.7465 110.296Z" fill="#ffffff" fill-rule="nonzero" opacity="1" stroke="none"/>
<path d="M109.281 97.6316C108.648 97.5375 108.024 97.3432 107.388 97.2812C106.864 97.2312 106.733 97.0429 106.716 96.4803C106.673 95.0787 105.45 93.9293 104.119 93.9133C103.205 93.8873 102.506 94.3618 101.945 95.0266C101.247 95.8536 100.649 96.7685 99.9496 97.5935C99.4743 98.1562 99.5342 98.5046 100.1 98.9471C101.793 100.273 103.472 101.62 105.112 103.012C105.692 103.492 105.983 103.442 106.41 102.839C107.183 101.748 107.214 101.774 106.173 100.937C105.944 100.753 105.705 100.581 105.496 100.375C105.336 100.217 104.938 100.152 105.162 99.7921C105.344 99.5017 105.5 99.1213 105.966 99.2194C106.431 99.3175 106.932 99.3315 107.382 99.5017C108.42 99.9022 109.065 99.4837 109.629 98.5927C110.002 98.014 110.021 97.7397 109.281 97.6316ZM103.485 98.7189C103.34 98.7308 102.301 97.8058 102.311 97.6716C102.336 97.3193 103.524 96.1399 103.856 96.1399C104.303 96.2319 104.629 96.4622 104.666 96.9708C104.687 97.2812 103.706 98.6988 103.485 98.7189Z" fill="#ffffff" fill-rule="nonzero" opacity="1" stroke="none"/>
<path d="M61.2511 32.1626C61.3188 32.563 61.4443 32.8834 61.9254 32.8053C63.6642 32.4929 65.4147 32.2227 67.1419 31.8502C68.0538 31.6499 67.4259 30.9371 67.4355 30.4486C67.4452 29.926 67.1709 29.7678 66.6762 29.868C65.7315 30.0582 64.7732 30.1883 63.8284 30.3826C63.3377 30.4826 63.2082 30.2504 63.1618 29.8159C63.1214 29.4294 63.0673 29.1291 63.6063 29.067C64.4042 28.9789 65.1847 28.7446 65.9827 28.6565C66.8463 28.5604 66.6878 27.9978 66.5951 27.4292C66.5024 26.8605 66.3864 26.3939 65.6291 26.6102C64.92 26.8104 64.1685 26.8424 63.4537 27.0287C62.9513 27.1608 62.7059 27.1288 62.6016 26.5201C62.4876 25.8633 62.8393 25.8093 63.2875 25.7392C64.0816 25.6171 64.8717 25.4588 65.6658 25.3388C66.174 25.2587 66.5642 25.1124 66.3594 24.4497C66.1952 23.9171 66.4289 23.0762 65.3683 23.3044C63.8593 23.6308 62.3388 23.9051 60.8125 24.1053C60.0823 24.2014 59.9818 24.5398 60.09 25.1686C60.4821 27.5052 60.8666 29.8399 61.2511 32.1626Z" fill="#ffffff" fill-rule="nonzero" opacity="1" stroke="none"/>
<path d="M87.0281 111.241C86.4646 111.478 85.8894 111.683 85.3048 111.856C84.8199 112.016 84.4702 112.22 84.76 112.857C84.9899 113.349 84.928 114.169 85.8458 113.788C86.0139 113.718 86.1936 113.554 86.3577 113.766C86.522 113.978 86.4137 114.23 86.3327 114.43C86.097 115.005 85.6023 115.251 85.0479 115.352C84.4933 115.452 84.0355 115.178 83.7592 114.677C83.3719 113.984 83.1099 113.225 82.9863 112.435C82.8067 111.267 83.8789 110.246 84.901 110.757C85.7433 111.177 86.3771 110.841 87.092 110.624C87.5807 110.477 87.5827 110.174 87.3006 109.805C86.6475 108.952 85.755 108.682 84.7425 108.638C83.6772 108.635 82.6469 109.033 81.8446 109.76C80.8785 110.656 80.4921 111.794 80.8785 113.093C81.3674 114.794 81.6513 116.698 83.6915 117.258C85.2565 117.685 86.636 117.181 87.7488 116.033C88.9525 114.783 88.6608 113.327 88.1353 111.843C87.9053 111.211 87.6812 110.943 87.0281 111.241Z" fill="#ffffff" fill-rule="nonzero" opacity="1" stroke="none"/>
<path d="M99.0107 107.459C98.3035 108.032 97.5346 108.522 96.8255 109.094C96.4391 109.407 96.2459 109.309 95.9967 108.933C95.7474 108.556 95.6702 108.332 96.0855 108.049C96.7289 107.61 97.3453 107.13 97.9712 106.666C98.176 106.514 98.4234 106.389 98.4002 106.021C98.2357 105.566 97.9561 105.165 97.5906 104.859C97.2312 104.598 96.9531 104.997 96.6729 105.198C96.0933 105.615 95.4866 105.999 94.9457 106.468C94.4955 106.856 94.366 106.502 94.1439 106.225C93.8772 105.903 93.8734 105.703 94.2463 105.451C94.9708 104.96 95.6412 104.383 96.3715 103.907C96.9704 103.518 96.8429 103.142 96.4913 102.693C96.1802 102.293 95.9908 101.692 95.3031 102.233C94.0434 103.206 92.7489 104.133 91.4602 105.07C91.0545 105.365 91.0371 105.656 91.3211 106.072C92.6542 107.987 93.97 109.915 95.2896 111.843C95.5292 112.192 95.7629 112.33 96.159 112.032C97.4805 111.031 98.813 110.046 100.156 109.079C100.789 108.624 100.406 108.246 100.135 107.836C99.8647 107.425 99.6076 106.972 99.0107 107.459Z" fill="#ffffff" fill-rule="nonzero" opacity="1" stroke="none"/>
<path d="M49.1064 104.209C48.8358 104.008 48.5499 104.103 48.3065 104.299C46.3513 105.874 44.398 107.452 42.4466 109.032C42.1896 109.232 41.9983 109.527 42.3693 109.741C43.0533 110.141 43.6793 111.143 44.5893 110.085C44.6335 110.016 44.7024 109.967 44.7812 109.95C44.86 109.932 44.9423 109.947 45.0104 109.992C45.7369 110.484 46.4691 110.966 47.1936 111.459C47.3868 111.595 47.323 111.808 47.2999 112.004C47.1974 112.863 47.7713 113.83 48.5963 113.876C49.4579 113.922 49.0522 112.979 49.3227 112.537C49.3546 112.478 49.3768 112.414 49.3883 112.349C49.8907 110.216 50.3931 108.082 50.934 105.771C50.7176 104.906 49.7612 104.726 49.1064 104.209ZM47.8698 109.559C46.3609 108.64 46.3609 108.64 47.5858 107.627C47.8331 107.427 48.0881 107.226 48.4514 106.938C48.3591 107.833 48.1639 108.713 47.8698 109.559Z" fill="#ffffff" fill-rule="nonzero" opacity="1" stroke="none"/>
<path d="M46.6121 36.7178C47.578 38.1074 49.0619 38.5198 50.6346 37.9192C52.2691 37.3065 53.5326 35.6526 53.4669 34.1408C53.4326 33.7783 53.3521 33.4222 53.2273 33.0816C53.2099 32.9825 53.1588 32.8931 53.0833 32.8296C53.0078 32.7661 52.913 32.7326 52.8158 32.7352C52.2556 32.7352 51.2258 33.7744 51.2181 34.3971C51.2084 35.2361 50.6906 35.6566 50.0433 35.9249C49.4309 36.1772 48.8842 35.9249 48.5228 35.3983C48.0918 34.7795 47.7081 34.1268 47.3752 33.446C47.1048 32.8714 47.155 32.2447 47.6592 31.7981C48.1635 31.3517 48.7876 31.0493 49.5043 31.4558C50.0066 31.7421 51.361 31.2555 51.6489 30.749C51.8421 30.4246 51.5948 30.2424 51.4382 30.0622C51.178 29.7571 50.8561 29.515 50.4956 29.353C50.135 29.1911 49.7445 29.1133 49.3517 29.1251C46.7666 29.1351 44.7515 31.1975 45.024 33.4521C45.1785 34.7215 45.9378 35.7226 46.6121 36.7178Z" fill="#ffffff" fill-rule="nonzero" opacity="1" stroke="none"/>
<path d="M74.0604 112.761C73.4055 110.995 72.9553 110.759 71.203 111.16C71.06 111.175 70.9245 111.233 70.8125 111.327C70.7005 111.42 70.6167 111.544 70.5712 111.686C69.8371 114.12 69.1054 116.559 68.3765 119.002C68.3127 119.216 68.22 119.469 68.4673 119.637C68.9947 119.997 70.38 119.492 70.6176 118.857C70.7161 118.594 70.7181 118.271 71.1412 118.279C71.914 118.295 72.6868 118.279 73.4596 118.241C73.7339 118.23 73.904 118.337 73.9523 118.594C74.101 119.395 74.5647 119.631 75.2042 119.458C76.5122 119.425 76.518 119.421 76.0891 118.258C75.4142 116.421 74.7379 114.588 74.0604 112.761ZM72.0202 116.379C71.4406 116.379 71.3556 116.211 71.5295 115.701C71.7402 115.076 71.9159 114.439 72.1612 113.626C72.4183 114.307 72.6076 114.797 72.7872 115.29C73.1891 116.405 73.1795 116.367 72.0202 116.379Z" fill="#ffffff" fill-rule="nonzero" opacity="1" stroke="none"/>
<path d="M91.0391 37.785C91.4912 38.0413 91.922 38.7242 92.4437 37.8211C93.1333 36.6197 93.8811 35.4604 94.5998 34.281C95.4653 32.8634 95.4885 32.8213 96.8796 33.7284C97.6196 34.2129 97.8147 33.6903 98.1257 33.2239C98.458 32.7233 98.5894 32.3409 97.9325 31.9404C96.3869 30.9859 94.8703 29.9901 93.3827 28.953C92.7508 28.5164 92.4379 28.6325 92.0302 29.2813C91.5781 29.9961 91.6709 30.3765 92.3702 30.761C92.776 30.9833 93.2299 31.1875 93.5101 31.604C93.3671 31.8422 93.2512 32.0425 93.1237 32.2388C92.2485 33.6724 91.3984 35.122 90.4923 36.5336C90.0055 37.3105 90.5677 37.5168 91.0391 37.785Z" fill="#ffffff" fill-rule="nonzero" opacity="1" stroke="none"/>
<g opacity="1">
<path d="M96.2332 70.4323C95.381 73.6777 93.9998 76.8431 92.1288 79.8409C90.9339 81.7552 89.5883 83.5176 88.1113 85.1133C89.7973 78.2338 88.6562 69.8063 84.5201 61.9032C84.2293 61.3474 83.5575 61.1633 83.0258 61.4958L70.1453 69.5527C69.6522 69.8614 69.5021 70.5115 69.8102 71.0054L71.6988 74.0307C72.0069 74.5246 72.6566 74.6746 73.1499 74.3662L81.4979 69.144C81.7777 69.9466 82.0285 70.7546 82.2421 71.5682C83.0455 74.626 83.3447 77.61 83.1313 80.4374C82.7347 85.701 80.5941 89.8022 77.1037 91.9855C75.3607 93.0759 73.3355 93.6533 71.1344 93.7161C71.0866 93.7152 71.038 93.7168 70.9902 93.7161C70.9492 93.7161 70.9076 93.7152 70.8666 93.7161C68.6653 93.6536 66.6398 93.0759 64.8962 91.9852C61.406 89.8022 59.2652 85.701 58.8686 80.4374C58.6555 77.61 58.9547 74.626 59.7578 71.5682C60.6103 68.3228 61.9909 65.1575 63.8625 62.1597C65.7336 59.1619 67.9702 56.5318 70.5107 54.3422C72.9039 52.2792 75.452 50.7019 78.0839 49.6542C82.9839 47.7036 87.6044 47.832 91.0948 50.0153C94.585 52.1984 96.7258 56.2996 97.1224 61.5631C97.3358 64.3906 97.0366 67.3746 96.2332 70.4323M49.8714 79.8409C48.0001 76.8431 46.6192 73.6777 45.7667 70.4323C44.9636 67.3746 44.6644 64.3906 44.8775 61.5631C45.2744 56.2996 47.4149 52.1984 50.9054 50.0153C54.3955 47.832 59.0163 47.7036 63.916 49.6542C64.6537 49.9478 65.3836 50.2892 66.1065 50.6663C63.4947 53.0353 61.0952 55.8822 59.0541 59.1522C53.6489 67.8111 52.0049 77.4291 53.8895 85.1141C52.4124 83.5185 51.0666 81.7555 49.8714 79.8409M94.0992 45.2019C87.4772 41.0596 78.7604 42.0441 70.9978 46.9373C63.2366 42.0457 54.5219 41.0604 47.9007 45.2022C37.4397 51.7456 36.1693 68.6007 45.063 82.8486C51.6209 93.3541 61.8732 99.508 71.0005 99.3934C80.1273 99.5075 90.3792 93.3538 96.9369 82.8486C105.831 68.6007 104.56 51.7456 94.0992 45.2019" fill="#ffffff" fill-rule="evenodd" opacity="1" stroke="#326ce5" stroke-linecap="butt" stroke-linejoin="miter" stroke-width="1.02007"/>
</g>
</g>
</svg>
